<?xml version="1.0" encoding="UTF-8" standalone="no"?>
<svg
   xmlns:dc="http://purl.org/dc/elements/1.1/"
   xmlns:cc="http://creativecommons.org/ns#"
   xmlns:rdf="http://www.w3.org/1999/02/22-rdf-syntax-ns#"
   xmlns:svg="http://www.w3.org/2000/svg"
   xmlns="http://www.w3.org/2000/svg"
   xmlns:sodipodi="http://sodipodi.sourceforge.net/DTD/sodipodi-0.dtd"
   xmlns:inkscape="http://www.inkscape.org/namespaces/inkscape"
   style="height: 512px; width: 512px;"
   viewBox="0 0 512 512"
   version="1.1"
   id="svg8"
   sodipodi:docname="orb-direction.svg"
   inkscape:version="0.92.3 (2405546, 2018-03-11)">
  <metadata
     id="metadata14">
    <rdf:RDF>
      <cc:Work
         rdf:about="">
        <dc:format>image/svg+xml</dc:format>
        <dc:type
           rdf:resource="http://purl.org/dc/dcmitype/StillImage" />
      </cc:Work>
    </rdf:RDF>
  </metadata>
  <defs
     id="defs12" />
  <sodipodi:namedview
     pagecolor="#ffffff"
     bordercolor="#666666"
     borderopacity="1"
     objecttolerance="10"
     gridtolerance="10"
     guidetolerance="10"
     inkscape:pageopacity="0"
     inkscape:pageshadow="2"
     inkscape:window-width="1920"
     inkscape:window-height="1017"
     id="namedview10"
     showgrid="false"
     inkscape:zoom="0.4609375"
     inkscape:cx="-139.9322"
     inkscape:cy="429.55932"
     inkscape:window-x="-8"
     inkscape:window-y="-8"
     inkscape:window-maximized="1"
     inkscape:current-layer="svg8" />
  <g
     class=""
     style="fill:#ffffff;stroke:none"
     id="g6"
     transform="translate(-2.1694937,-2.1694915)">
    <path
       d="M 255.78,21 C 128.098,21 23.47,125.628 23.47,253.313 c 0,127.685 104.627,230.78 232.31,230.78 127.685,0 230.782,-103.095 230.782,-230.78 C 486.562,125.628 383.466,21 255.782,21 Z m -1.06,82 117.374,117.97 -23.938,25.093 -65.406,-37.938 v 172.47 c 79.295,-13.13 139.78,-81.987 139.78,-165 0,-39.265 -13.54,-75.368 -36.186,-103.907 37.702,35.365 61.22,85.81 61.22,141.625 -0.002,106.395 -85.385,191.78 -191.783,191.78 -106.398,0 -193.31,-85.385 -193.31,-191.78 0,-55.123 23.342,-105.018 60.624,-140.313 -22.028,28.33 -35.156,63.928 -35.156,102.594 0,82.46 59.645,150.973 138.156,164.75 v -168.72 l -62.5,35.626 -25.094,-26.28 z"
       id="path4"
       style="fill:#ffffff;fill-opacity:1;stroke:none"
       inkscape:connector-curvature="0" />
  </g>
</svg>
