<?xml version="1.0" encoding="UTF-8" standalone="no"?>
<!-- Created with Inkscape (http://www.inkscape.org/) -->

<svg
   xmlns:dc="http://purl.org/dc/elements/1.1/"
   xmlns:cc="http://creativecommons.org/ns#"
   xmlns:rdf="http://www.w3.org/1999/02/22-rdf-syntax-ns#"
   xmlns:svg="http://www.w3.org/2000/svg"
   xmlns="http://www.w3.org/2000/svg"
   xmlns:sodipodi="http://sodipodi.sourceforge.net/DTD/sodipodi-0.dtd"
   xmlns:inkscape="http://www.inkscape.org/namespaces/inkscape"
   width="210mm"
   height="297mm"
   viewBox="0 0 210 297"
   version="1.1"
   id="svg843"
   inkscape:version="0.92.3 (2405546, 2018-03-11)"
   sodipodi:docname="straitSplash.svg">
  <defs
     id="defs837" />
  <sodipodi:namedview
     id="base"
     pagecolor="#ffffff"
     bordercolor="#666666"
     borderopacity="1.0"
     inkscape:pageopacity="0.0"
     inkscape:pageshadow="2"
     inkscape:zoom="0.35"
     inkscape:cx="-1107.1429"
     inkscape:cy="560"
     inkscape:document-units="mm"
     inkscape:current-layer="layer1"
     showgrid="false"
     inkscape:window-width="1920"
     inkscape:window-height="1017"
     inkscape:window-x="-8"
     inkscape:window-y="-8"
     inkscape:window-maximized="1" />
  <metadata
     id="metadata840">
    <rdf:RDF>
      <cc:Work
         rdf:about="">
        <dc:format>image/svg+xml</dc:format>
        <dc:type
           rdf:resource="http://purl.org/dc/dcmitype/StillImage" />
        <dc:title />
      </cc:Work>
    </rdf:RDF>
  </metadata>
  <g
     inkscape:label="Calque 1"
     inkscape:groupmode="layer"
     id="layer1">
    <path
       style="fill:#ffffff;fill-opacity:1;stroke:none;stroke-width:0.41447619;stroke-linejoin:round;stroke-miterlimit:4;stroke-dasharray:3.31580952, 0.41447619;stroke-dashoffset:0;stroke-opacity:1;paint-order:normal"
       id="path1412"
       d="m 83.102988,143.97932 c 0.467305,0.16116 0.9847,0.74859 1.401913,0.48349 0.606576,-0.38542 0.45353,-1.40013 0.911855,-1.95369 0.328663,-0.39695 3.155554,-1.42458 3.261099,-1.45793 0.131144,-0.0414 -0.247133,0.14003 -0.326365,0.25245 -0.09054,0.12847 -0.108867,0.29489 -0.1633,0.44233 0.189608,0.38853 0.555926,1.31608 1.065229,1.37647 0.299668,0.0356 0.398276,-0.57053 0.700024,-0.57405 0.356128,-0.004 0.592992,0.71175 0.912886,0.55518 1.64304,-0.80414 -0.381307,-3.6172 1.690941,0.69877 0.331481,0.13194 0.662961,0.26387 0.994441,0.39581 0.349614,-0.12344 0.693549,-0.47633 1.048844,-0.37033 0.530418,0.15824 0.721701,1.07072 1.275176,1.06365 0.52025,-0.007 0.617304,-0.93668 1.113208,-1.09411 3.192351,-1.01342 -1.421499,2.64772 2.02385,-0.50141 1.864491,0.94863 0.221302,0.31792 1.939011,0.51173 0.31434,0.0355 0.60991,0.27169 0.92246,0.22287 0.37684,-0.0589 0.63653,-0.49066 1.01633,-0.52567 0.90582,-0.0835 1.6617,0.80242 2.23206,1.27996 2.16032,0.36965 0.45996,0.24217 2.59416,-0.0407 0.38855,-0.0515 0.8166,0.099 1.17424,-0.0613 0.43576,-0.19537 0.6865,-0.6693 1.07495,-0.94707 3.14012,-2.24538 -1.69211,1.71087 1.70593,-1.15001 0.26436,0.0859 0.58427,0.44113 0.79309,0.25767 0.38435,-0.33769 0.16821,-1.08964 0.54624,-1.43438 0.17106,-0.156 0.29646,0.38472 0.51194,0.46937 0.18675,0.0734 0.46574,-0.18031 0.60105,-0.0322 1.28443,1.40617 0.0243,2.03011 1.4763,0.82774 1.51804,0.56033 0.13398,0.34251 1.35177,-0.89256 0.29099,-0.29512 0.75963,0.27421 0.98926,0.25862 0.19979,-0.0136 0.34293,-0.35401 0.53006,-0.28272 0.25898,0.0987 0.32689,0.44763 0.49034,0.67144 0.13548,-0.34091 0.22495,-0.70392 0.40643,-1.02273 0.0701,-0.12319 0.45267,-0.49669 0.66264,-0.22819 0.17151,0.21932 0.0859,0.90076 0.3302,0.76723 0.3488,-0.19066 0.23411,-0.75977 0.35117,-1.13965 12.82299,0 12.82299,18.13446 0,18.13446 v 0 c -0.11706,-0.0233 -0.25178,-0.004 -0.35117,-0.0699 -0.14039,-0.0933 -0.19887,-0.48867 -0.3302,-0.38301 -0.24966,0.20088 -0.11129,1.14928 -0.32027,0.90637 -0.88944,-1.03384 0.17267,-2.65336 -0.7488,-0.90578 -0.16345,-0.42771 -0.0436,-1.38372 -0.49034,-1.28312 -0.52131,0.1174 -0.0178,1.3607 -0.53006,1.51292 -0.41582,0.12356 -0.0865,-0.97508 -0.44164,-1.22418 -0.20804,-0.14591 -0.35655,0.6978 -0.54763,0.5303 -1.31862,-1.15586 0.22211,-2.50696 -1.35178,-0.54373 -0.25633,-0.0815 -0.50732,-0.30679 -0.76898,-0.24451 -0.63687,0.15158 -0.5878,0.88894 -1.30826,0.84234 -0.67749,-0.0438 -1.09683,-1.57425 -1.85145,-1.42838 -1.8156,0.78141 0.0629,0.31037 -1.70596,-1.29349 -0.26621,-0.24139 -0.71734,-0.0469 -1.07483,-0.0834 -0.39234,-0.0401 -0.8046,-0.008 -1.17406,-0.14648 -2.13654,-0.79797 -0.59439,-1.58879 -2.59391,0.77538 -0.94994,-0.2887 -1.26419,-0.58648 -2.23356,-0.10243 -0.38881,0.19414 -0.58838,0.74731 -1.01767,0.81495 -0.34696,0.0547 -0.61953,-0.33153 -0.92247,-0.50927 -1.271147,-0.74577 -0.54691,-0.75485 -1.932068,0.0243 -0.33387,-0.0879 -0.674228,-0.15417 -1.00161,-0.26383 -0.570731,-0.19117 -1.500311,-0.71487 -2.139971,-0.66379 -2.382777,0.19027 -0.275641,0.56267 -2.359056,1.32946 -0.314179,0.11564 -0.66424,-0.0843 -0.996359,-0.12641 -0.315334,0.33311 -0.537396,0.79091 -0.946002,0.99932 -0.19194,0.0979 -0.411659,-0.12823 -0.613381,-0.20395 -0.264187,-0.0992 -0.53031,-0.19597 -0.783572,-0.32042 -0.257865,-0.1267 -0.496767,-0.57376 -0.746271,-0.43129 -0.485435,0.27717 -0.49934,1.04228 -0.935685,1.39167 -0.236825,0.18964 -0.604238,0.0555 -0.906357,0.0833 -0.4643,0.20786 -0.950928,0.3717 -1.3929,0.62357 -0.422129,0.24057 -1.616123,1.07361 -1.186622,0.84646 0.591166,-0.31263 1.292226,-0.55607 1.674756,-1.10461 0.332629,-0.47697 0.365064,-1.14222 0.294658,-1.71945 -0.05037,-0.41297 -0.231471,-1.17376 -0.635417,-1.07422 -0.498773,0.12289 -0.439244,0.92874 -0.658866,1.39312 -9.127579,1.82551 -11.709247,-11.08283 -2.581669,-12.90835 z"
       inkscape:connector-curvature="0"
       inkscape:export-xdpi="96"
       inkscape:export-ydpi="96" />
  </g>
</svg>
